<?xml version="1.0" encoding="UTF-8" standalone="no"?>
<!-- Created with Inkscape (http://www.inkscape.org/) -->

<svg
   xmlns:dc="http://purl.org/dc/elements/1.1/"
   xmlns:cc="http://creativecommons.org/ns#"
   xmlns:rdf="http://www.w3.org/1999/02/22-rdf-syntax-ns#"
   xmlns:svg="http://www.w3.org/2000/svg"
   xmlns="http://www.w3.org/2000/svg"
   xmlns:sodipodi="http://sodipodi.sourceforge.net/DTD/sodipodi-0.dtd"
   xmlns:inkscape="http://www.inkscape.org/namespaces/inkscape"
   width="210mm"
   height="297mm"
   id="svg2"
   version="1.1"
   inkscape:version="0.48.3.1 r9886"
   sodipodi:docname="icons.svg">
  <defs
     id="defs4" />
  <sodipodi:namedview
     id="base"
     pagecolor="#ffffff"
     bordercolor="#666666"
     borderopacity="1.0"
     inkscape:pageopacity="0.0"
     inkscape:pageshadow="2"
     inkscape:zoom="1"
     inkscape:cx="372.04724"
     inkscape:cy="526.18109"
     inkscape:document-units="px"
     inkscape:current-layer="layer1"
     showgrid="false"
     inkscape:window-width="1301"
     inkscape:window-height="744"
     inkscape:window-x="65"
     inkscape:window-y="24"
     inkscape:window-maximized="1" />
  <metadata
     id="metadata7">
    <rdf:RDF>
      <cc:Work
         rdf:about="">
        <dc:format>image/svg+xml</dc:format>
        <dc:type
           rdf:resource="http://purl.org/dc/dcmitype/StillImage" />
        <dc:title></dc:title>
      </cc:Work>
    </rdf:RDF>
  </metadata>
  <g
     inkscape:label="Camada 1"
     inkscape:groupmode="layer"
     id="layer1">
    <path
       style="fill:#ffffff;fill-opacity:1"
       d="m 408.5,415.83918 c -7.34888,-1.05509 -12.37148,-3.50501 -16.61984,-8.10681 l -3.77307,-4.08697 -38.16806,2.82608 -38.16807,2.82608 -1.88548,-2.32848 c -2.34334,-2.8939 -2.36636,-4.29147 -0.11644,-7.07 1.35059,-1.66791 3.23103,-2.31724 7.9498,-2.74512 5.83934,-0.52949 6.27034,-0.7492 7.80213,-3.97721 0.89174,-1.87921 1.8649,-4.91754 2.16256,-6.75185 l 0.54122,-3.33509 9.63762,-1.25808 c 10.47949,-1.36798 15.81652,-2.79255 10.88763,-2.90616 l -2.75,-0.0634 0,-11.84272 c 0,-10.46767 0.27016,-12.35444 2.32677,-16.25 1.27973,-2.424 4.24164,-5.75728 6.58203,-7.40728 4.02342,-2.83655 4.87032,-3.01814 15.54402,-3.33288 l 11.28876,-0.33287 0.71522,2.83287 0.71523,2.83288 1.29773,-2.5 c 0.71375,-1.375 1.62897,-4.525 2.03382,-7 1.20497,-7.36646 3.87579,-11.52114 9.00136,-14.00239 6.48011,-3.13697 12.31398,-2.17869 17.34114,2.84847 3.37492,3.37492 6.15392,9.45904 6.15392,13.47289 0,2.175 2.13161,6.68103 3.16052,6.68103 0.46171,0 0.83948,-1.16481 0.83948,-2.58848 l 0,-2.58847 10.82748,0.33847 c 9.76876,0.30538 11.22344,0.60081 14.87709,3.02133 2.63533,1.7459 4.96563,4.52106 6.67252,7.94635 2.29101,4.59745 2.62291,6.49657 2.62291,15.00813 0,5.35955 0.3375,9.95119 0.75,10.20364 0.80432,0.49224 20.46032,3.7983 34.0102,5.72037 7.72432,1.09571 8.2956,1.34257 8.80604,3.80519 0.30022,1.44841 1.38227,4.47905 2.40456,6.73477 1.79452,3.95964 2.05401,4.12146 7.51303,4.68488 3.10986,0.32096 6.32098,1.13686 7.1358,1.8131 1.9521,1.6201 1.4121,7.8652 -0.79985,9.25031 -1.20225,0.75284 -12.37553,0.25213 -39.27717,-1.76015 l -37.59694,-2.81231 -4.751,4.44401 c -7.18485,6.72058 -16.57982,9.35163 -27.69467,7.75586 z m 16.68988,-13.65589 c 1.76062,-1.02826 4.12659,-3.65866 5.25772,-5.84533 2.65108,-5.12505 2.54851,-5.11785 36.04674,-2.53193 34.59381,2.67049 31.64803,2.78653 30.30518,-1.19385 -0.60304,-1.7875 -1.16585,-3.34872 -1.25069,-3.46938 -0.0848,-0.12066 -4.85553,-0.91237 -10.60154,-1.75935 -5.74601,-0.84699 -18.0885,-2.92131 -27.42776,-4.60961 -18.11715,-3.27511 -22.59889,-3.26986 -30.01953,0.0351 -4.82147,2.14739 -8.33263,5.77282 -9.36759,9.67249 -0.56713,2.13691 -1.45752,2.9624 -3.44847,3.19712 -2.04199,0.24074 -2.68483,-0.11803 -2.68768,-1.5 -0.006,-2.95806 -3.53309,-7.86704 -7.34494,-10.2229 -6.85199,-4.23471 -13.48254,-4.63198 -29.15132,-1.74655 -11.8111,2.17503 -39.29656,6.65308 -40.8354,6.65308 -0.69295,0 -2.74894,6.249 -2.22753,6.7704 0.24534,0.24535 13.18487,-0.54005 28.75451,-1.74534 15.56963,-1.20528 29.88278,-2.04149 31.80699,-1.85824 2.87521,0.27382 3.79137,0.9568 5.14188,3.83318 2.0894,4.45011 4.45819,6.55807 8.85955,7.88399 4.90173,1.47667 14.37984,0.6623 18.18988,-1.56288 z m -7.02874,-21.32111 3.28458,-3 -6.73864,0 -6.73863,0 3.26577,2.97069 c 1.79618,1.63387 3.35051,2.98387 3.45406,3 0.10356,0.0161 1.66634,-1.32069 3.47286,-2.97069 z m -42.26066,-9.06217 c 1.62246,-5.4153 7.23096,-11.44071 12.53435,-13.46609 3.35866,-1.28269 6.9617,-1.57094 16.35453,-1.30843 11.49702,0.32132 12.24457,0.47361 16.37875,3.33669 2.91904,2.02155 5.25174,4.83884 7.15222,8.63799 2.18225,4.36242 3.23518,5.5295 4.65395,5.15848 1.47454,-0.3856 1.68103,-1.01155 1.05442,-3.1964 -2.05605,-7.16902 -8.21053,-14.22169 -14.24675,-16.32593 l -2.90611,-1.01307 2.31208,-2.52458 2.31208,-2.52459 -3.1348,0.59601 c -1.72414,0.32781 -4.87414,1.7836 -7,3.23509 -3.31213,2.26145 -4.67398,2.58216 -9.51743,2.2413 -4.07628,-0.28687 -6.58565,-1.1045 -9,-2.93249 -1.84127,-1.39409 -4.63001,-2.85086 -6.1972,-3.23727 l -2.84943,-0.70255 2.16752,3.044 c 1.19214,1.67421 1.76404,3.04401 1.27088,3.04401 -1.99118,0 -9.88641,6.13865 -12.0631,9.37924 -1.27796,1.90258 -2.94394,5.52058 -3.70217,8.04 -1.35743,4.51038 -1.34336,4.58076 0.91527,4.58076 1.81564,0 2.54762,-0.8469 3.51094,-4.06217 z M 462,361.3728 c 0,-2.62822 -0.52921,-6.54492 -1.17602,-8.70378 -1.45887,-4.8693 -7.61848,-12.00691 -12.26414,-14.21142 l -3.49274,-1.65741 1.9787,-3.21901 c 1.08828,-1.77045 2.45134,-4.94665 3.02902,-7.05823 l 1.05032,-3.83922 10.3549,0.33922 c 9.62325,0.31526 10.65559,0.5512 14.61065,3.33923 2.34067,1.65 5.30281,4.98328 6.58254,7.40728 C 484.7286,337.66267 485,339.5536 485,349.98072 l 0,11.80398 -5.25,1.58017 c -2.8875,0.86909 -8.0625,1.85159 -11.5,2.18334 l -6.25,0.60318 0,-4.77859 z m -95.72555,-25.60381 c -6.76387,-3.34807 -10.06331,-10.4407 -8.36765,-17.98752 1.06743,-4.7508 5.14237,-9.54484 9.81108,-11.54245 9.26987,-3.96631 19.94898,2.09867 21.90291,12.43932 0.51574,2.72938 0.14837,3.81535 -2.07617,6.13726 -1.48653,1.55161 -3.29234,4.55933 -4.01292,6.68384 -2.20528,6.50191 -9.23419,8.24091 -17.25725,4.26955 z m 58.67354,1.49376 c -0.8536,-0.25903 -2.07673,-2.43284 -2.71806,-4.8307 -0.66022,-2.46851 -2.72896,-6.0169 -4.76893,-8.1799 -3.18141,-3.37328 -3.5255,-4.23261 -2.94143,-7.34601 0.85307,-4.54721 7.21586,-10.7161 11.97355,-11.60865 5.00987,-0.93985 9.97219,0.2439 13.51336,3.2236 8.6136,7.24786 8.05682,19.79617 -1.18199,26.63878 -2.58935,1.91777 -10.52396,3.1202 -13.8765,2.10288 z M 451.75,319.78208 c -0.9625,-0.5606 -1.75,-1.68985 -1.75,-2.50943 0,-2.57934 -3.83286,-9.13383 -6.62592,-11.33086 -2.54044,-1.99831 -2.61965,-2.31661 -1.50349,-6.04201 2.36005,-7.87714 10.72305,-12.93875 18.89423,-11.43551 5.04804,0.92869 11.7044,7.58505 12.63309,12.63309 1.36094,7.39765 -2.36234,15.09647 -8.77184,18.13797 -3.84013,1.82226 -10.22096,2.09321 -12.87607,0.54675 z M 393,317.41951 c 0,-1.46116 -0.68656,-3.9843 -1.52568,-5.60699 l -1.52568,-2.95034 12.06086,0 12.06087,0 -1.17291,2.1916 c -0.6451,1.20538 -1.46813,3.29548 -1.82896,4.64466 -0.61107,2.28488 -1.13295,2.46393 -7.61227,2.61178 -3.82593,0.0873 -7.74373,0.52034 -8.70623,0.96233 -1.42918,0.65628 -1.75,0.31657 -1.75,-1.85304 z m -4.6005,-12.75267 -8.10049,-1.96143 1.33487,-5.67161 c 0.73418,-3.11939 1.35179,-7.24662 1.37246,-9.17162 0.11753,-10.94543 10.79639,-20.23424 21.34624,-18.56762 8.2237,1.29914 15.58265,8.93517 15.68711,16.27778 0.0218,1.53441 0.61168,6.04904 1.31077,10.03251 1.45581,8.29533 2.36899,7.32578 -9.16584,9.73158 -9.19095,1.91694 -13.61772,1.79232 -23.78512,-0.66959 z"
       id="path3263"
       inkscape:connector-curvature="0"
       inkscape:export-filename="/home/caiosba/Presidência/proposal-app/images/icons/educacao.png"
       inkscape:export-xdpi="183.64153"
       inkscape:export-ydpi="183.64153" />
    <path
       style="fill:#ffffff;fill-opacity:1"
       d="m 354.99143,639.8527 c -2.34419,-2.59029 -2.26701,-3.96966 1.9857,-35.49052 2.17271,-16.10393 3.51072,-30.10411 3.51536,-36.78275 l 0.008,-10.78276 -9.44822,-4.38521 -9.44822,-4.38522 -1.50932,-5.33203 c -6.1489,-21.72232 -7.10019,-28.73798 -3.39424,-25.03203 1.87162,1.87162 5.1855,1.41362 6.64155,-0.9179 0.72746,-1.16484 1.66902,-1.72734 2.09237,-1.25 0.42334,0.47735 2.06105,6.00092 3.63936,12.27461 l 2.86966,11.40672 5.52853,2.59328 c 4.87533,2.28689 7.16803,2.65236 19.40492,3.09329 l 13.87639,0.5 10.85852,11.5 c 5.97219,6.325 12.08115,13.23026 13.57546,15.34503 2.538,3.59178 2.61927,4.01989 1.2339,6.5 -1.06698,1.9101 -2.43672,2.74666 -4.88227,2.98178 -3.12382,0.30034 -4.02885,-0.34781 -11.1707,-8 l -7.77148,-8.32681 -0.0273,12.5 c -0.015,6.875 0.40939,22.85 0.94305,35.5 0.91261,21.6325 0.86087,23.14864 -0.8702,25.5 -2.50289,3.39976 -8.01234,3.90553 -10.66108,0.97871 -1.90207,-2.10177 -2.20694,-5.74981 -3.40375,-40.72871 -0.0615,-1.79684 -0.65936,-2.25 -2.96857,-2.25 -3.51408,0 -3.27212,-0.86815 -6.23578,22.37354 -2.56078,20.08223 -3.60542,22.62646 -9.29022,22.62646 -2.00759,0 -3.97533,-0.77669 -5.09098,-2.00948 z M 379.5,568.86218 c 0,-2.66667 0.33333,-3 3,-3 2.66667,0 3,-0.33333 3,-3 0,-2.66667 -0.33333,-3 -3,-3 -2.66667,0 -3,-0.33333 -3,-3 0,-2.66667 -0.33333,-3 -3,-3 -2.66667,0 -3,0.33333 -3,3 0,2.66667 -0.33333,3 -3,3 -2.66667,0 -3,0.33333 -3,3 0,2.66667 0.33333,3 3,3 2.66667,0 3,0.33333 3,3 0,2.66667 0.33333,3 3,3 2.66667,0 3,-0.33333 3,-3 z M 362.91271,537.9194 c -4.88304,-1.16737 -5.58592,-1.86506 -4.29984,-4.26812 0.61505,-1.14923 1.4699,-4.92485 1.89967,-8.39025 0.95427,-7.69461 3.53341,-11.5999 9.14325,-13.84451 5.19165,-2.07729 10.792,-1.3106 14.74921,2.01917 3.52445,2.96563 4.8016,6.24503 5.42366,13.92649 0.26723,3.3 0.79835,6.78125 1.18026,7.7361 0.51599,1.29008 0.009,1.99659 -1.97236,2.75 -3.01408,1.14595 -21.41827,1.19605 -26.12385,0.0711 z m -36.5807,-30.85079 c -6.96739,-4.78854 -13.3799,-9.90086 -14.25,-11.36072 -2.00035,-3.35619 -2.02928,-9.08011 -0.0651,-12.87844 3.69103,-7.13767 15.73717,-8.02061 20.8092,-1.52523 0.55221,0.70717 1.01996,0.56061 1.41072,-0.44204 0.32152,-0.825 2.04226,-2.9625 3.82387,-4.75 2.72721,-2.73624 3.97431,-3.25 7.88894,-3.25 8.4309,0 13.55034,4.68141 13.55034,12.39096 0,2.60025 -1.44648,5.60919 -5.67241,11.79966 -8.36357,12.2516 -13.29827,18.81498 -14.10913,18.76581 -0.39516,-0.024 -6.41906,-3.96147 -13.38645,-8.75 z"
       id="path3330"
       inkscape:connector-curvature="0"
       inkscape:export-filename="/home/caiosba/Presidência/proposal-app/images/icons/saude.png"
       inkscape:export-xdpi="272.548"
       inkscape:export-ydpi="272.548" />
    <path
       style="fill:#ffffff;fill-opacity:1"
       d="m 545,508.07758 c 0,-9.9651 0.34797,-10.7154 4.96951,-10.7154 0.99327,0 4.72779,-1.3673 8.29894,-3.03844 6.8872,-3.22291 8.11408,-3.36507 26.50838,-3.07158 12.35876,0.19719 16.52826,1.15139 15.6001,3.57014 -0.61285,1.59707 -9.0775,4.53988 -13.05843,4.53988 -2.64409,0 -3.10144,1.48558 -0.73671,2.39301 3.50549,1.34519 12.27728,0.44844 24.00904,-2.45447 14.11374,-3.4923 19.74482,-3.58899 20.20796,-0.347 0.2421,1.69473 -0.8448,2.60475 -5.72885,4.79659 -6.9449,3.11668 -14.61178,5.84768 -24.56994,8.75198 -5.51016,1.60705 -11.57595,2.21279 -28.5,2.84608 -11.825,0.44249 -22.7375,1.1254 -24.25,1.51757 l -2.75,0.71306 0,-9.50142 z m 39.15415,-23.4654 c -1.82604,-1.54568 -2.30599,-4.1911 -4.11079,-22.6581 C 578.91951,450.45463 578,437.94057 578,434.14507 c 0,-7.78545 -1.49745,-8.37175 -2.57852,-1.00958 -1.15202,7.8453 -2.04297,9.40311 -5.17197,9.04307 -2.26846,-0.26103 -2.80293,-0.86613 -3.05483,-3.45856 -0.36823,-3.78966 2.26136,-14.38291 4.79036,-19.29784 3.33057,-6.47276 12.49429,-13.18065 14.82382,-10.85112 0.8085,0.8085 1.51643,0.76607 2.62939,-0.15761 1.25591,-1.04231 2.28577,-0.81699 5.8721,1.28474 2.392,1.40181 4.91159,3.22651 5.59909,4.0549 1.0925,1.31637 1.76437,1.13355 5.33211,-1.45091 3.6524,-2.64578 4.25519,-2.80041 5.72643,-1.46896 1.45511,1.31686 1.81542,1.31701 3.13107,0.001 1.31566,-1.31565 2.02271,-1.14684 6.14428,1.46699 6.12066,3.8816 9.27212,8.85587 11.774,18.5841 2.40185,9.33927 2.03036,12.47653 -1.47737,12.47653 -3.03268,0 -3.35312,-0.53981 -5.5376,-9.32858 -1.75956,-7.0792 -1.78385,-7.11357 -1.8884,-2.67146 -0.0902,3.83365 1.1073,13.19558 3.42173,26.75 0.50227,2.94158 0.31979,3.25 -1.92299,3.25 -2.91873,0 -3.07012,0.41291 -4.69204,12.7973 -1.37679,10.51261 -2.64312,12.2027 -9.14317,12.2027 l -3.77749,0 0.13618,-18.75 c 0.0749,-10.3125 0.31338,-17.625 0.52996,-16.25 0.95279,6.04914 1.4125,7 3.3843,7 2.86086,0 3.41018,-2.36386 2.0067,-8.63527 -1.28457,-5.74007 -6.49593,-12.36473 -9.72684,-12.36473 -1.2094,0 -0.95567,-0.64736 1.03334,-2.63636 3.17336,-3.17337 3.34812,-6.18906 0.56378,-9.72878 C 601.79908,419.7487 594,422.82857 594,429.70719 c 0,2.05514 0.75771,4.03073 1.96496,5.12328 1.93758,1.75348 1.92016,1.808 -1.25,3.91306 -4.33672,2.87967 -7.86202,9.98753 -7.49841,15.11865 0.22951,3.23885 0.66403,4 2.28345,4 1.51756,0 2.12853,-0.84427 2.53282,-3.5 0.49762,-3.26875 0.57963,-3.1366 1.24131,2 0.38967,3.025 0.7124,11.0125 0.71718,17.75 l 0.009,12.25 -3.88922,0 c -2.24976,0 -4.76071,-0.73769 -5.95663,-1.75 z M 600,473.36218 c 0,-8 0.38461,-13 1,-13 0.61539,0 1,5 1,13 0,8 -0.38461,13 -1,13 -0.61539,0 -1,-5 -1,-13 z m -0.48992,-35.98369 c -0.34546,-0.55897 0.0734,-1.01631 0.9309,-1.01631 1.75653,0 2.01516,0.60006 0.62812,1.45729 -0.512,0.31644 -1.21356,0.11799 -1.55902,-0.44098 z m 7.98992,-30.506 c -1.65,-0.74898 -3.73642,-1.58647 -4.6365,-1.8611 -1.49976,-0.45761 -1.47907,-1.06706 0.24765,-7.29414 2.16894,-7.82189 4.12457,-10.21159 8.94863,-10.93489 5.17138,-0.77537 9.56239,2.36269 10.89226,7.78421 0.57953,2.36259 1.7152,5.54832 2.52371,7.0794 1.38222,2.61753 1.33725,2.83387 -0.75287,3.62211 -9.08504,3.42623 -12.50712,3.74502 -17.22288,1.60441 z m -24.38993,-1.85139 c -8.9053,-5.13864 -5.36205,-18.65892 4.88993,-18.65892 12.42293,0 13.81362,18.17278 1.49844,19.58083 -2.38175,0.27231 -4.96476,-0.10044 -6.38837,-0.92191 z m 20.18738,-23.57044 c -12.78393,-0.56982 -16.37814,-1.53087 -14.86736,-3.97537 0.78134,-1.26423 9.95971,-4.11311 13.25141,-4.11311 2.64409,0 3.10144,-1.48558 0.73671,-2.39301 -3.50549,-1.34519 -12.27728,-0.44844 -24.00904,2.45447 -14.15327,3.50208 -19.74462,3.59146 -20.21109,0.32307 -0.34178,-2.39474 4.08042,-4.85369 16.30192,-9.06462 17.39266,-5.99265 20.15026,-6.47348 42,-7.32328 11.55,-0.44922 22.4625,-1.13848 24.25,-1.53169 l 3.25,-0.71494 0,9.51801 c 0,10.05096 -0.32648,10.73199 -5.1448,10.73199 -1.08967,0 -4.76537,1.31479 -8.16821,2.92175 -7.55254,3.56662 -10.57583,3.91617 -27.38954,3.16673 z"
       id="path3397"
       inkscape:connector-curvature="0"
       inkscape:export-filename="/home/caiosba/Presidência/proposal-app/images/icons/seguranca.png"
       inkscape:export-xdpi="272.548"
       inkscape:export-ydpi="272.548" />
    <path
       style="fill:#ffffff;fill-opacity:1"
       d="m 519.18406,668.81075 c -0.94229,-3.60327 -5.55249,-8.60615 -10.24493,-11.11745 -4.6924,-2.51131 -13.27023,-11.7199 -19.06176,-20.46357 -9.03692,-13.64325 -10.3851,-18.62305 -9.50744,-35.11822 0.81518,-15.32107 2.30939,-19.46568 7.36479,-20.42819 5.63261,-1.07241 6.2287,1.08138 5.32817,19.25186 -0.88936,17.94538 0.20603,22.0587 8.91355,33.475 5.46013,7.15859 11.31242,13.01563 13.00508,13.01563 4.63409,0 3.97203,-1.40618 -7.39856,-15.71421 -11.90833,-14.98469 -12.73948,-18.55694 -5.00791,-21.52382 3.36284,-1.29042 9.7493,1.98502 16.58722,8.50718 6.11545,5.83308 14.22237,11.16198 18.01536,11.84202 8.93241,1.60152 15.68551,15.20598 15.75046,31.73003 l 0.0513,13.09517 -16.04113,0 c -12.75118,0 -16.39251,-1.34367 -17.75437,-6.55143 z m 44.32311,-6.54374 c 0.065,-16.52405 6.81805,-30.12851 15.75046,-31.73003 3.79299,-0.68004 11.89992,-6.00894 18.01536,-11.84202 6.83792,-6.52216 13.22438,-9.7976 16.58722,-8.50718 7.73157,2.96688 6.90043,6.53913 -5.00791,21.52382 -11.37059,14.30803 -12.03264,15.71421 -7.39856,15.71421 1.69267,0 7.54495,-5.85704 13.00508,-13.01563 8.70766,-11.4163 9.80294,-15.52962 8.91355,-33.475 -0.90053,-18.17048 -0.3045,-20.32427 5.32817,-19.25186 5.0554,0.96251 6.54961,5.10712 7.36479,20.42819 0.87766,16.49517 -0.47051,21.47497 -9.50744,35.11822 -5.79153,8.74367 -14.36935,17.95226 -19.06176,20.46357 -4.69243,2.5113 -9.30263,7.51418 -10.24493,11.11745 -1.36186,5.20776 -5.00319,6.55143 -17.75436,6.55143 l -16.04114,0 0.0513,-13.09517 z m -22.3638,-46.6594 c -18.78088,-16.53159 -26.57632,-29.68226 -26.57632,-44.83341 0,-19.91235 21.07136,-31.21491 36.77988,-19.72856 5.73135,4.19084 7.6833,4.19084 13.66661,0 16.15976,-11.31877 36.85467,-0.2406 36.85467,19.72856 0,13.79502 -7.018,26.88974 -21.52735,40.16727 -22.52502,20.61274 -21.25319,20.46133 -39.19749,4.66614 z m -39.99311,-20.5625 c 0,-4.80156 0.79259,-6.76584 1.76132,-4.36506 0.96873,2.40079 0.96873,6.32934 0,8.73012 -0.96873,2.40078 -1.76132,0.43651 -1.76132,-4.36506 z m 111.74549,0 c 0,-4.80156 0.79258,-6.76584 1.76131,-4.36506 0.96873,2.40079 0.96873,6.32934 0,8.73012 -0.96873,2.40078 -1.76131,0.43651 -1.76131,-4.36506 z"
       id="path3464"
       inkscape:connector-curvature="0"
       inkscape:export-filename="/home/caiosba/Presidência/proposal-app/images/icons/reducao-da-pobreza.png"
       inkscape:export-xdpi="272.548"
       inkscape:export-ydpi="272.548" />
  </g>
</svg>
