<?xml version="1.0" encoding="UTF-8" standalone="no"?>
<!-- Created with Inkscape (http://www.inkscape.org/) -->

<svg
   xmlns:dc="http://purl.org/dc/elements/1.1/"
   xmlns:cc="http://creativecommons.org/ns#"
   xmlns:rdf="http://www.w3.org/1999/02/22-rdf-syntax-ns#"
   xmlns:svg="http://www.w3.org/2000/svg"
   xmlns="http://www.w3.org/2000/svg"
   xmlns:sodipodi="http://sodipodi.sourceforge.net/DTD/sodipodi-0.dtd"
   xmlns:inkscape="http://www.inkscape.org/namespaces/inkscape"
   width="210mm"
   height="297mm"
   id="svg5922"
   version="1.1"
   inkscape:version="0.48.3.1 r9886"
   sodipodi:docname="icons.svg">
  <defs
     id="defs5924" />
  <sodipodi:namedview
     id="base"
     pagecolor="#ffffff"
     bordercolor="#666666"
     borderopacity="1.0"
     inkscape:pageopacity="0.0"
     inkscape:pageshadow="2"
     inkscape:zoom="0.7"
     inkscape:cx="266.71872"
     inkscape:cy="648.43259"
     inkscape:document-units="px"
     inkscape:current-layer="layer1"
     showgrid="false"
     inkscape:window-width="1301"
     inkscape:window-height="744"
     inkscape:window-x="65"
     inkscape:window-y="24"
     inkscape:window-maximized="1" />
  <metadata
     id="metadata5927">
    <rdf:RDF>
      <cc:Work
         rdf:about="">
        <dc:format>image/svg+xml</dc:format>
        <dc:type
           rdf:resource="http://purl.org/dc/dcmitype/StillImage" />
        <dc:title></dc:title>
      </cc:Work>
    </rdf:RDF>
  </metadata>
  <g
     inkscape:label="Camada 1"
     inkscape:groupmode="layer"
     id="layer1">
    <rect
       style="fill:#0e232e;fill-opacity:1;stroke:none"
       id="rect5930"
       width="471.42859"
       height="542.85718"
       x="11.428572"
       y="243.79076"
       rx="0"
       ry="0" />
    <g
       id="g4571"
       transform="matrix(0.65725672,0,0,0.65725672,57.190343,276.93872)"
       style="fill:#ffffff;fill-opacity:1">
      <g
         id="g4531"
         style="fill:#ffffff;fill-opacity:1">
        <path
           id="path4533"
           d="m 66.491,3.877 c -7.04,0 -13.74,2.51 -18.937,6.995 C 42.358,6.387 35.658,3.877 28.617,3.877 12.837,3.877 0,16.419 0,31.835 0,58.16 43.441,88.397 45.291,89.672 l 2.263,1.559 2.263,-1.559 C 51.667,88.399 95.108,58.16 95.108,31.835 95.108,16.419 82.271,3.877 66.491,3.877 z M 47.554,77.923 C 36.859,69.867 25.488,59.511 18.279,49.554 h 17.668 l 4.269,-11.549 9.939,27.049 7.333,-15.5 H 76.83 C 69.62,59.511 58.249,69.868 47.554,77.923 z M 79.508,45.554 H 54.954 L 50.619,54.72 40.227,26.437 33.161,45.554 h -17.56 c -2.981,-4.872 -4.777,-9.557 -4.777,-13.719 0,-9.449 7.982,-17.135 17.794,-17.135 5.334,0 10.342,2.278 13.742,6.252 l 5.194,5.894 5.194,-5.894 c 3.4,-3.974 8.408,-6.252 13.742,-6.252 9.812,0 17.794,7.686 17.794,17.135 0,4.162 -1.795,8.847 -4.776,13.719 z"
           inkscape:connector-curvature="0"
           style="fill:#ffffff;fill-opacity:1" />
      </g>
      <g
         id="g4535"
         style="fill:#ffffff;fill-opacity:1" />
      <g
         id="g4537"
         style="fill:#ffffff;fill-opacity:1" />
      <g
         id="g4539"
         style="fill:#ffffff;fill-opacity:1" />
      <g
         id="g4541"
         style="fill:#ffffff;fill-opacity:1" />
      <g
         id="g4543"
         style="fill:#ffffff;fill-opacity:1" />
      <g
         id="g4545"
         style="fill:#ffffff;fill-opacity:1" />
      <g
         id="g4547"
         style="fill:#ffffff;fill-opacity:1" />
      <g
         id="g4549"
         style="fill:#ffffff;fill-opacity:1" />
      <g
         id="g4551"
         style="fill:#ffffff;fill-opacity:1" />
      <g
         id="g4553"
         style="fill:#ffffff;fill-opacity:1" />
      <g
         id="g4555"
         style="fill:#ffffff;fill-opacity:1" />
      <g
         id="g4557"
         style="fill:#ffffff;fill-opacity:1" />
      <g
         id="g4559"
         style="fill:#ffffff;fill-opacity:1" />
      <g
         id="g4561"
         style="fill:#ffffff;fill-opacity:1" />
      <g
         id="g4563"
         style="fill:#ffffff;fill-opacity:1" />
    </g>
    <g
       id="g4732"
       transform="matrix(0.18908304,0,0,0.18908304,211.80823,270.4746)"
       style="fill:#ffffff;fill-opacity:1"
       inkscape:export-filename="/home/caiosba/Presidência/prototype/v1/images/icons/edu.png"
       inkscape:export-xdpi="84.768181"
       inkscape:export-ydpi="84.768181">
      <g
         id="g4685"
         style="fill:#ffffff;fill-opacity:1">
        <g
           id="Layer_5_59_"
           style="fill:#ffffff;fill-opacity:1">
          <g
             id="g4688"
             style="fill:#ffffff;fill-opacity:1">
            <path
               id="path4690"
               d="m 225.092,276.586 c -7.101,4.355 -16.195,6.754 -25.607,6.754 -9.412,0 -18.506,-2.398 -25.607,-6.754 L 57.946,205.484 c 0,0 -10.464,-6.414 -10.464,8.116 0,16.5 0,66 0,66 0,0.66 0,3.973 0,5 0,37.402 68.053,77.723 152,77.723 83.947,0 152,-40.32 152,-77.723 0,-1.027 0,-4.34 0,-5 0,0 0,-52.502 0,-70.003 0,-11.663 -7.439,-5.964 -7.439,-5.964 l -118.951,72.953 z"
               inkscape:connector-curvature="0"
               style="fill:#ffffff;fill-opacity:1" />
            <path
               id="path4692"
               d="m 392.289,148.927 c 8.908,-5.463 8.908,-14.403 0,-19.867 L 215.681,40.745 c -8.908,-5.463 -23.485,-5.463 -32.393,0 L 6.681,129.06 c -8.908,5.463 -8.908,14.403 0,19.867 l 176.607,108.315 c 8.908,5.463 23.485,5.463 32.393,0"
               inkscape:connector-curvature="0"
               style="fill:#ffffff;fill-opacity:1" />
            <path
               id="path4694"
               d="m 384.985,309.475 c 0,-29.906 0,-119.625 0,-119.625 0,0 0.083,-5.666 -3.279,-3.795 -2.697,1.501 -9.308,5.186 -11.637,7.212 -2.689,2.337 -2.083,7.583 -2.083,7.583 0,0 0,81.469 0,108.625 0,1.542 -1.325,2.278 -1.957,2.65 -6.105,3.589 -10.21,10.214 -10.21,17.809 0,11.414 9.252,20.667 20.667,20.667 11.414,0 20.666,-9.253 20.666,-20.667 0,-7.624 -4.135,-14.27 -10.279,-17.85 -0.611,-0.356 -1.888,-1.068 -1.888,-2.609 z"
               inkscape:connector-curvature="0"
               style="fill:#ffffff;fill-opacity:1" />
          </g>
        </g>
      </g>
      <g
         id="g4696"
         style="fill:#ffffff;fill-opacity:1" />
      <g
         id="g4698"
         style="fill:#ffffff;fill-opacity:1" />
      <g
         id="g4700"
         style="fill:#ffffff;fill-opacity:1" />
      <g
         id="g4702"
         style="fill:#ffffff;fill-opacity:1" />
      <g
         id="g4704"
         style="fill:#ffffff;fill-opacity:1" />
      <g
         id="g4706"
         style="fill:#ffffff;fill-opacity:1" />
      <g
         id="g4708"
         style="fill:#ffffff;fill-opacity:1" />
      <g
         id="g4710"
         style="fill:#ffffff;fill-opacity:1" />
      <g
         id="g4712"
         style="fill:#ffffff;fill-opacity:1" />
      <g
         id="g4714"
         style="fill:#ffffff;fill-opacity:1" />
      <g
         id="g4716"
         style="fill:#ffffff;fill-opacity:1" />
      <g
         id="g4718"
         style="fill:#ffffff;fill-opacity:1" />
      <g
         id="g4720"
         style="fill:#ffffff;fill-opacity:1" />
      <g
         id="g4722"
         style="fill:#ffffff;fill-opacity:1" />
      <g
         id="g4724"
         style="fill:#ffffff;fill-opacity:1" />
    </g>
    <g
       id="g4996"
       transform="matrix(0.66794609,0,0,0.66794609,369.47473,267.05911)"
       style="fill:#ffffff;fill-opacity:1"
       inkscape:export-filename="/home/caiosba/Presidência/prototype/v1/images/icons/seg.png"
       inkscape:export-xdpi="63.449932"
       inkscape:export-ydpi="63.449932">
      <g
         id="g4942"
         style="fill:#ffffff;fill-opacity:1">
        <g
           id="g4944"
           style="fill:#ffffff;fill-opacity:1">
          <path
             id="path4946"
             d="M 58.384,6.328 C 49.422,5.984 22,15.498 17.717,18.974 c -1.39,1.128 -0.826,3.253 -0.196,3.967 2.564,3.268 21.2,-2.714 22.596,-3.078 4.378,-1.089 17.617,-3.965 18.122,0.706 -9.781,0.486 -14.084,3.228 -14.153,4.741 -0.094,2.043 2.26,2.431 4.147,2.607 4.086,0.384 9.5,-0.46 14.289,0.217 10.77,1.524 14.72,0.753 22.419,-3.997 1.521,-0.938 5.502,-1.618 9.261,-1.929 V 4.325 C 86.155,5.675 76.746,6.401 72.802,6.383 67.994,6.357 63.182,6.512 58.384,6.328 z"
             inkscape:connector-curvature="0"
             style="fill:#ffffff;fill-opacity:1" />
          <path
             id="path4948"
             d="m 96.092,0 v 24.709 h 10.22 V 0 h -10.22 z m 5.376,6.353 c -1.246,0 -2.258,-1.01 -2.258,-2.257 0,-1.248 1.012,-2.258 2.258,-2.258 1.247,0 2.259,1.01 2.259,2.258 0,1.247 -1.012,2.257 -2.259,2.257 z"
             inkscape:connector-curvature="0"
             style="fill:#ffffff;fill-opacity:1" />
          <g
             id="g4950"
             style="fill:#ffffff;fill-opacity:1">
            <circle
               id="circle4952"
               r="9.4130001"
               cy="41.577999"
               cx="44.161999"
               sodipodi:cx="44.161999"
               sodipodi:cy="41.577999"
               sodipodi:rx="9.4130001"
               sodipodi:ry="9.4130001"
               d="m 53.574999,41.577999 c 0,5.198657 -4.214344,9.413 -9.413,9.413 -5.198657,0 -9.413,-4.214343 -9.413,-9.413 0,-5.198656 4.214343,-9.413 9.413,-9.413 5.198656,0 9.413,4.214344 9.413,9.413 z"
               style="fill:#ffffff;fill-opacity:1" />
            <circle
               id="circle4954"
               r="9.1520004"
               cy="43.834"
               cx="66.896004"
               sodipodi:cx="66.896004"
               sodipodi:cy="43.834"
               sodipodi:rx="9.1520004"
               sodipodi:ry="9.1520004"
               d="m 76.048004,43.834 c 0,5.05451 -4.09749,9.152 -9.152,9.152 -5.054511,0 -9.152001,-4.09749 -9.152001,-9.152 0,-5.054511 4.09749,-9.152001 9.152001,-9.152001 5.05451,0 9.152,4.09749 9.152,9.152001 z"
               style="fill:#ffffff;fill-opacity:1" />
            <path
               id="path4956"
               d="M 86.295,80.755 C 84.17,66.261 80.953,60.057 73.055,55.215 72.901,55.121 70.416,53.804 69.248,53.517 l -2.281,2.295 -2.21,-2.321 c -0.008,10e-4 -0.016,0.003 -0.022,0.004 -1.691,0.405 -5.777,3.044 -7.917,5.086 -1.711,-2.048 -3.781,-3.743 -6.321,-5.301 -0.157,-0.097 -2.715,-1.45 -3.915,-1.746 l -2.345,2.361 -2.273,-2.387 c -0.008,0.002 -0.015,0.003 -0.023,0.005 -1.616,0.556 -3.051,1.39 -4.752,2.537 -7.256,4.88 -10.348,11.349 -12.423,25.498 -0.292,1.996 1.089,3.853 3.086,4.146 0.18,0.025 0.358,0.039 0.535,0.039 1.783,0 3.345,-1.308 3.611,-3.125 0.747,-5.088 1.61,-8.809 2.606,-11.619 v 11.508 c 0,0.982 0.19,1.9 0.526,2.742 -0.026,0.19 -0.044,0.383 -0.044,0.578 l 3.352,34.994 c 0,2.385 1.933,4.317 4.319,4.317 h 5.828 0.811 l 0.011,-24.805 -0.411,-1.739 v -9.096 c -0.757,1.324 -1.463,5.158 -1.463,8.179 0,1.251 -1.014,2.265 -2.266,2.265 -0.362,0 -0.7,-0.092 -1.003,-0.242 l -0.541,-0.439 c -0.4,-0.409 -0.647,-0.966 -0.647,-1.583 0,-2.286 0.239,-4.271 0.646,-5.993 l 0.232,-0.883 c 2.443,-8.574 9.198,-10.113 10.082,-10.324 0.005,0 0.011,-0.001 0.016,-0.004 l 1.478,1.553 1.477,-1.553 c 0.006,0.003 0.013,0.004 0.017,0.004 1.08,0.258 10.96,2.498 10.96,17.2 0,1.251 -1.014,2.265 -2.267,2.265 -1.251,0 -2.265,-1.014 -2.265,-2.265 0,-3.021 -0.706,-6.854 -1.465,-8.179 v 9.179 l -0.406,1.657 0.002,24.805 h 0.688 6.468 10e-4 c 2.318,0 4.197,-1.879 4.197,-4.199 l 2.525,-18.199 4.64,0.004 -3.77,-25.948 v -5.349 c 1.138,2.836 2.105,6.737 2.93,12.347 0.26,1.767 1.776,3.04 3.511,3.04 0.172,0 0.345,-0.014 0.52,-0.04 1.945,-0.286 3.287,-2.091 3.002,-4.031 z M 55.528,78.107 c -3.491,-0.033 -6.31,-2.873 -6.31,-6.369 0,-3.498 2.819,-6.336 6.31,-6.369 3.491,0.033 6.31,2.871 6.31,6.369 0,3.498 -2.818,6.336 -6.31,6.369 z"
               inkscape:connector-curvature="0"
               style="fill:#ffffff;fill-opacity:1" />
            <path
               id="path4958"
               d="m 55.396,99.691 -0.124,-0.004 c -0.012,-0.002 -0.023,-0.002 -0.034,-0.002 -0.229,0 -0.447,0.088 -0.614,0.25 -0.173,0.166 -0.271,0.396 -0.271,0.635 l 0.003,22.598 h 2.415 l 10e-4,-22.598 c 0,-0.239 -0.097,-0.469 -0.27,-0.635 -0.166,-0.162 -0.386,-0.25 -0.615,-0.25 -0.011,0 -0.021,0 -0.034,0.002"
               inkscape:connector-curvature="0"
               style="fill:#ffffff;fill-opacity:1" />
          </g>
        </g>
      </g>
      <g
         id="g4960"
         style="fill:#ffffff;fill-opacity:1" />
      <g
         id="g4962"
         style="fill:#ffffff;fill-opacity:1" />
      <g
         id="g4964"
         style="fill:#ffffff;fill-opacity:1" />
      <g
         id="g4966"
         style="fill:#ffffff;fill-opacity:1" />
      <g
         id="g4968"
         style="fill:#ffffff;fill-opacity:1" />
      <g
         id="g4970"
         style="fill:#ffffff;fill-opacity:1" />
      <g
         id="g4972"
         style="fill:#ffffff;fill-opacity:1" />
      <g
         id="g4974"
         style="fill:#ffffff;fill-opacity:1" />
      <g
         id="g4976"
         style="fill:#ffffff;fill-opacity:1" />
      <g
         id="g4978"
         style="fill:#ffffff;fill-opacity:1" />
      <g
         id="g4980"
         style="fill:#ffffff;fill-opacity:1" />
      <g
         id="g4982"
         style="fill:#ffffff;fill-opacity:1" />
      <g
         id="g4984"
         style="fill:#ffffff;fill-opacity:1" />
      <g
         id="g4986"
         style="fill:#ffffff;fill-opacity:1" />
      <g
         id="g4988"
         style="fill:#ffffff;fill-opacity:1" />
    </g>
    <g
       id="g5450"
       transform="matrix(2.8349284,0,0,2.8349284,40.010643,406.27007)"
       style="fill:#ffffff;fill-opacity:1"
       inkscape:export-filename="/home/caiosba/Presidência/prototype/v1/images/icons/cid.png"
       inkscape:export-xdpi="84.355652"
       inkscape:export-ydpi="84.355652">
      <g
         id="g5354"
         style="fill:#ffffff;fill-opacity:1">
        <g
           id="g5356"
           style="fill:#ffffff;fill-opacity:1">
          <polygon
             id="polygon5358"
             points="24.517,18.172 26.706,15.983 28.896,18.172 28.896,27.879 33.93,27.879 33.93,26.879 29.896,26.879 29.896,17.758 26.706,14.569 23.517,17.758 23.517,26.879 20.482,26.879 20.482,6.051 16.398,6.051 13.447,9.719 13.447,26.879 10.413,26.879 10.413,13.43 2.69,13.43 2.69,26.879 0,26.879 0,27.879 3.69,27.879 3.69,14.43 9.413,14.43 9.413,27.879 14.447,27.879 14.447,10.072 16.877,7.051 19.482,7.051 19.482,27.879 24.517,27.879 "
             style="fill:#ffffff;fill-opacity:1" />
          <rect
             id="rect5360"
             height="1.194"
             width="1.49"
             y="15.403"
             x="4.5700002"
             style="fill:#ffffff;fill-opacity:1" />
          <rect
             id="rect5362"
             height="1.194"
             width="1.49"
             y="15.403"
             x="7.0799999"
             style="fill:#ffffff;fill-opacity:1" />
          <rect
             id="rect5364"
             height="1.1950001"
             width="1.49"
             y="17.417999"
             x="4.5700002"
             style="fill:#ffffff;fill-opacity:1" />
          <rect
             id="rect5366"
             height="1.1950001"
             width="1.49"
             y="17.417999"
             x="7.0799999"
             style="fill:#ffffff;fill-opacity:1" />
          <rect
             id="rect5368"
             height="1.1950001"
             width="1.49"
             y="19.434"
             x="4.5700002"
             style="fill:#ffffff;fill-opacity:1" />
          <rect
             id="rect5370"
             height="1.1950001"
             width="1.49"
             y="19.434"
             x="7.0799999"
             style="fill:#ffffff;fill-opacity:1" />
          <rect
             id="rect5372"
             height="1.1950001"
             width="1.49"
             y="21.447001"
             x="4.5700002"
             style="fill:#ffffff;fill-opacity:1" />
          <rect
             id="rect5374"
             height="1.1950001"
             width="1.49"
             y="21.447001"
             x="7.0799999"
             style="fill:#ffffff;fill-opacity:1" />
          <rect
             id="rect5376"
             height="1.1950001"
             width="1.49"
             y="23.462999"
             x="4.5700002"
             style="fill:#ffffff;fill-opacity:1" />
          <rect
             id="rect5378"
             height="1.1950001"
             width="1.49"
             y="23.462999"
             x="7.0799999"
             style="fill:#ffffff;fill-opacity:1" />
          <rect
             id="rect5380"
             height="1.1950001"
             width="1.49"
             y="25.479"
             x="4.5700002"
             style="fill:#ffffff;fill-opacity:1" />
          <rect
             id="rect5382"
             height="1.1950001"
             width="1.49"
             y="25.479"
             x="7.0799999"
             style="fill:#ffffff;fill-opacity:1" />
          <rect
             id="rect5384"
             height="1.1950001"
             width="1.1950001"
             y="19.021"
             x="25.09"
             style="fill:#ffffff;fill-opacity:1" />
          <rect
             id="rect5386"
             height="1.1950001"
             width="1.194"
             y="19.023001"
             x="27.105"
             style="fill:#ffffff;fill-opacity:1" />
          <rect
             id="rect5388"
             height="1.1950001"
             width="1.1950001"
             y="21.037001"
             x="25.09"
             style="fill:#ffffff;fill-opacity:1" />
          <rect
             id="rect5390"
             height="1.1950001"
             width="1.194"
             y="21.037001"
             x="27.105"
             style="fill:#ffffff;fill-opacity:1" />
          <rect
             id="rect5392"
             height="1.1950001"
             width="1.1950001"
             y="23.052999"
             x="25.09"
             style="fill:#ffffff;fill-opacity:1" />
          <rect
             id="rect5394"
             height="1.742"
             width="1.1950001"
             y="8.1619997"
             x="17.375"
             style="fill:#ffffff;fill-opacity:1" />
          <rect
             id="rect5396"
             height="1.742"
             width="1.1950001"
             y="11.098"
             x="17.375"
             style="fill:#ffffff;fill-opacity:1" />
          <rect
             id="rect5398"
             height="1.7410001"
             width="1.1950001"
             y="14.033"
             x="15.36"
             style="fill:#ffffff;fill-opacity:1" />
          <rect
             id="rect5400"
             height="1.742"
             width="1.1950001"
             y="14.033"
             x="17.375"
             style="fill:#ffffff;fill-opacity:1" />
          <rect
             id="rect5402"
             height="1.743"
             width="1.1950001"
             y="16.968"
             x="15.36"
             style="fill:#ffffff;fill-opacity:1" />
          <rect
             id="rect5404"
             height="1.742"
             width="1.1950001"
             y="16.969"
             x="17.375"
             style="fill:#ffffff;fill-opacity:1" />
          <rect
             id="rect5406"
             height="1.74"
             width="1.1950001"
             y="19.903999"
             x="15.36"
             style="fill:#ffffff;fill-opacity:1" />
          <rect
             id="rect5408"
             height="1.742"
             width="1.1950001"
             y="19.903999"
             x="17.375"
             style="fill:#ffffff;fill-opacity:1" />
          <rect
             id="rect5410"
             height="1.74"
             width="1.1950001"
             y="22.84"
             x="15.36"
             style="fill:#ffffff;fill-opacity:1" />
          <rect
             id="rect5412"
             height="1.742"
             width="1.1950001"
             y="22.84"
             x="17.375"
             style="fill:#ffffff;fill-opacity:1" />
        </g>
      </g>
      <g
         id="g5414"
         style="fill:#ffffff;fill-opacity:1" />
      <g
         id="g5416"
         style="fill:#ffffff;fill-opacity:1" />
      <g
         id="g5418"
         style="fill:#ffffff;fill-opacity:1" />
      <g
         id="g5420"
         style="fill:#ffffff;fill-opacity:1" />
      <g
         id="g5422"
         style="fill:#ffffff;fill-opacity:1" />
      <g
         id="g5424"
         style="fill:#ffffff;fill-opacity:1" />
      <g
         id="g5426"
         style="fill:#ffffff;fill-opacity:1" />
      <g
         id="g5428"
         style="fill:#ffffff;fill-opacity:1" />
      <g
         id="g5430"
         style="fill:#ffffff;fill-opacity:1" />
      <g
         id="g5432"
         style="fill:#ffffff;fill-opacity:1" />
      <g
         id="g5434"
         style="fill:#ffffff;fill-opacity:1" />
      <g
         id="g5436"
         style="fill:#ffffff;fill-opacity:1" />
      <g
         id="g5438"
         style="fill:#ffffff;fill-opacity:1" />
      <g
         id="g5440"
         style="fill:#ffffff;fill-opacity:1" />
      <g
         id="g5442"
         style="fill:#ffffff;fill-opacity:1" />
    </g>
    <g
       id="g5655"
       transform="matrix(0.18033126,0,0,0.18033126,215.63973,410.92225)"
       style="fill:#ffffff;fill-opacity:1"
       inkscape:export-filename="/home/caiosba/Presidência/prototype/v1/images/icons/mei.png"
       inkscape:export-xdpi="86.02523"
       inkscape:export-ydpi="86.02523">
      <g
         id="g5615"
         style="fill:#ffffff;fill-opacity:1">
        <path
           id="path5617"
           d="m 285.454,222.313 c -50.998,-20.857 -60.574,-37.622 -84.091,-40.809 -3.377,-0.458 -6.071,0.149 -8.203,1.245 0.231,-13.555 0.527,-27.549 0.659,-29.182 0.338,0.61 0.697,1.213 1.092,1.804 7.285,10.908 21.434,14.246 40.201,1.714 17.839,-11.912 27.765,-47.101 27.765,-47.101 0,0 -36.308,-4.316 -54.146,7.596 -4.446,2.97 -7.959,6.042 -10.652,9.146 0.446,-1.932 0.896,-3.764 1.322,-5.525 1.449,-5.941 2.729,-11.209 3.194,-16.651 11.263,-3.56 18.323,-15.108 14.46,-35.597 -3.979,-21.078 -32.469,-43.988 -32.469,-43.988 0,0 -18.19,31.716 -14.213,52.794 3.48,18.448 12.57,26.92 22.949,27.849 -0.512,4.115 -1.541,8.363 -2.777,13.436 -0.521,2.136 -1.066,4.374 -1.607,6.754 -1.801,-3.783 -4.447,-7.761 -8.066,-11.887 -14.144,-16.127 -50.326,-21.363 -50.326,-21.363 0,0 0.469,36.559 14.611,52.686 14.881,16.967 29.41,17.408 39.272,8.758 0.073,-0.063 0.142,-0.131 0.214,-0.194 -0.124,1.617 -0.44,17.038 -0.671,30.777 -2.762,-3.702 -7.248,-3.186 -7.248,-3.186 -12.914,0.534 -42.248,41.666 -42.248,41.666 -6.853,11.711 -8.011,22.557 -7.797,30.219 0,0 -67.704,-37.819 -88.712,-45.871 -20.878,-8.002 -64.881,-2.459 -15.158,32.135 31.146,21.668 135.559,100.243 154.574,105.002 23.628,5.914 110.845,-7.78 129.404,-6.725 18.558,1.055 58.437,14.349 79.635,23.641 v -74.918 c -17.87,-10.001 -38.894,-38.835 -100.968,-64.225 z m -81.488,56.395 c -48.379,-6.242 -33.596,-40.973 -33.596,-40.973 10.3,-22.187 14.808,-35.484 15.404,-43.635 l 0.718,0.059 c 1.655,8.544 10.857,20.851 28.92,33.6 35.373,24.969 38.185,57.351 -11.446,50.949 z"
           inkscape:connector-curvature="0"
           style="fill:#ffffff;fill-opacity:1" />
      </g>
      <g
         id="g5619"
         style="fill:#ffffff;fill-opacity:1" />
      <g
         id="g5621"
         style="fill:#ffffff;fill-opacity:1" />
      <g
         id="g5623"
         style="fill:#ffffff;fill-opacity:1" />
      <g
         id="g5625"
         style="fill:#ffffff;fill-opacity:1" />
      <g
         id="g5627"
         style="fill:#ffffff;fill-opacity:1" />
      <g
         id="g5629"
         style="fill:#ffffff;fill-opacity:1" />
      <g
         id="g5631"
         style="fill:#ffffff;fill-opacity:1" />
      <g
         id="g5633"
         style="fill:#ffffff;fill-opacity:1" />
      <g
         id="g5635"
         style="fill:#ffffff;fill-opacity:1" />
      <g
         id="g5637"
         style="fill:#ffffff;fill-opacity:1" />
      <g
         id="g5639"
         style="fill:#ffffff;fill-opacity:1" />
      <g
         id="g5641"
         style="fill:#ffffff;fill-opacity:1" />
      <g
         id="g5643"
         style="fill:#ffffff;fill-opacity:1" />
      <g
         id="g5645"
         style="fill:#ffffff;fill-opacity:1" />
      <g
         id="g5647"
         style="fill:#ffffff;fill-opacity:1" />
    </g>
    <g
       id="g5846"
       transform="matrix(2.4579238,0,0,2.4579238,374.29883,420.55582)"
       style="fill:#ffffff;fill-opacity:1"
       inkscape:export-filename="/home/caiosba/Presidência/prototype/v1/images/icons/eco.png"
       inkscape:export-xdpi="73.125725"
       inkscape:export-ydpi="73.125725">
      <g
         id="g5798"
         style="fill:#ffffff;fill-opacity:1">
        <g
           id="g5800"
           style="fill:#ffffff;fill-opacity:1">
          <path
             id="path5802"
             d="m 31.243,12.977 c -0.249,-0.57 -0.78,-0.948 -1.389,-0.984 -0.395,-0.028 -0.788,0.071 -1.14,0.24 -0.193,-0.158 -0.42,-0.288 -0.676,-0.372 -0.608,-0.202 -1.937,-0.025 -2.521,0.593 -1.221,-1.665 -3.035,-3.005 -5.196,-3.876 -0.401,0.654 -1.007,1.163 -1.733,1.439 0.145,0.116 0.219,0.198 0.229,0.21 0.181,0.208 0.159,0.524 -0.049,0.706 -0.096,0.082 -0.211,0.123 -0.328,0.123 -0.141,0 -0.278,-0.058 -0.377,-0.172 -0.027,-0.03 -0.805,-0.849 -2.837,-0.849 -2.033,0 -2.81,0.819 -2.842,0.854 -0.185,0.201 -0.5,0.219 -0.704,0.037 -0.204,-0.182 -0.226,-0.492 -0.047,-0.698 0.04,-0.045 0.948,-1.031 3.114,-1.166 C 14.367,8.631 14.085,8.112 13.954,7.533 12.532,7.604 11.17,7.855 9.916,8.274 8.7,6.7 5.489,5.247 3.822,4.897 c 0,3.45 1.513,4.218 1.458,6.079 -1.272,1.18 -2.201,2.598 -2.675,4.162 L 0.812,14.874 c -0.544,-0.08 -0.901,0.296 -0.793,0.835 l 0.717,3.585 c 0.108,0.539 0.646,0.98 1.196,0.98 h 0.805 c 0.638,1.77 1.87,3.332 3.512,4.551 v 5.384 c 2.726,0 4.936,0.078 4.936,-2.062 v -1.063 c 1.127,0.267 2.318,0.416 3.554,0.416 1.609,0 3.142,-0.252 4.554,-0.694 v 1.34 c 0,2.141 2.21,2.062 4.937,2.062 v -6.211 c 1.872,-1.749 3.01,-4.016 3.01,-6.498 0,-1.667 -0.517,-3.235 -1.419,-4.618 0.335,-0.518 1.574,-0.709 2.062,-0.546 0.136,0.045 0.26,0.105 0.371,0.179 -0.447,0.336 -0.771,0.787 -0.849,1.208 -0.055,0.294 -0.07,1.015 0.979,1.35 0.133,0.042 0.259,0.063 0.375,0.063 0.38,0 0.671,-0.213 0.798,-0.604 0.166,-0.51 0.005,-1.305 -0.468,-1.915 0.236,-0.091 0.488,-0.139 0.735,-0.125 0.501,0.03 0.825,0.374 0.96,0.685 0.152,0.351 0.115,0.717 -0.102,0.979 -0.088,0.106 -0.073,0.264 0.033,0.352 0.105,0.088 0.265,0.073 0.353,-0.034 0.334,-0.404 0.402,-0.977 0.175,-1.496 z M 7.072,15.373 c -0.529,0 -0.958,-0.429 -0.958,-0.958 0,-0.529 0.429,-0.958 0.958,-0.958 0.529,0 0.958,0.429 0.958,0.958 0,0.529 -0.428,0.958 -0.958,0.958 z m 22.009,-0.998 c -0.05,0.152 -0.16,0.342 -0.544,0.218 -0.492,-0.157 -0.707,-0.419 -0.64,-0.782 0.062,-0.331 0.352,-0.696 0.741,-0.959 0.418,0.494 0.559,1.166 0.443,1.523 z"
             inkscape:connector-curvature="0"
             style="fill:#ffffff;fill-opacity:1" />
          <circle
             id="circle5804"
             r="2.4920001"
             cy="6.7600002"
             cx="17.354"
             sodipodi:cx="17.354"
             sodipodi:cy="6.7600002"
             sodipodi:rx="2.4920001"
             sodipodi:ry="2.4920001"
             d="m 19.846,6.7600002 c 0,1.3762937 -1.115706,2.4920001 -2.492,2.4920001 -1.376294,0 -2.492,-1.1157064 -2.492,-2.4920001 0,-1.3762936 1.115706,-2.4920001 2.492,-2.4920001 1.376294,0 2.492,1.1157065 2.492,2.4920001 z"
             style="fill:#ffffff;fill-opacity:1" />
          <circle
             id="circle5806"
             r="1.864"
             cy="3.0309999"
             cx="13.862"
             sodipodi:cx="13.862"
             sodipodi:cy="3.0309999"
             sodipodi:rx="1.864"
             sodipodi:ry="1.864"
             d="m 15.726,3.0309999 c 0,1.0294588 -0.834541,1.864 -1.864,1.864 -1.029458,0 -1.863999,-0.8345412 -1.863999,-1.864 0,-1.0294588 0.834541,-1.864 1.863999,-1.864 1.029459,0 1.864,0.8345412 1.864,1.864 z"
             style="fill:#ffffff;fill-opacity:1" />
          <circle
             id="circle5808"
             r="1.301"
             cy="4.0929999"
             cx="20.924999"
             sodipodi:cx="20.924999"
             sodipodi:cy="4.0929999"
             sodipodi:rx="1.301"
             sodipodi:ry="1.301"
             d="m 22.225999,4.0929999 c 0,0.7185225 -0.582477,1.301 -1.301,1.301 -0.718522,0 -1.301,-0.5824775 -1.301,-1.301 0,-0.7185224 0.582478,-1.301 1.301,-1.301 0.718523,0 1.301,0.5824776 1.301,1.301 z"
             style="fill:#ffffff;fill-opacity:1" />
        </g>
      </g>
      <g
         id="g5810"
         style="fill:#ffffff;fill-opacity:1" />
      <g
         id="g5812"
         style="fill:#ffffff;fill-opacity:1" />
      <g
         id="g5814"
         style="fill:#ffffff;fill-opacity:1" />
      <g
         id="g5816"
         style="fill:#ffffff;fill-opacity:1" />
      <g
         id="g5818"
         style="fill:#ffffff;fill-opacity:1" />
      <g
         id="g5820"
         style="fill:#ffffff;fill-opacity:1" />
      <g
         id="g5822"
         style="fill:#ffffff;fill-opacity:1" />
      <g
         id="g5824"
         style="fill:#ffffff;fill-opacity:1" />
      <g
         id="g5826"
         style="fill:#ffffff;fill-opacity:1" />
      <g
         id="g5828"
         style="fill:#ffffff;fill-opacity:1" />
      <g
         id="g5830"
         style="fill:#ffffff;fill-opacity:1" />
      <g
         id="g5832"
         style="fill:#ffffff;fill-opacity:1" />
      <g
         id="g5834"
         style="fill:#ffffff;fill-opacity:1" />
      <g
         id="g5836"
         style="fill:#ffffff;fill-opacity:1" />
      <g
         id="g5838"
         style="fill:#ffffff;fill-opacity:1" />
    </g>
    <g
       id="g6918"
       transform="translate(21.796214,184.1584)"
       style="fill:#ffffff;fill-opacity:1"
       inkscape:export-filename="/home/caiosba/Presidência/prototype/v1/images/icons/des.png"
       inkscape:export-xdpi="116.05415"
       inkscape:export-ydpi="116.05415">
      <g
         id="g6864"
         style="fill:#ffffff;fill-opacity:1">
	<g
   id="g6866"
   style="fill:#ffffff;fill-opacity:1">
		<path
   id="path6868"
   d="m 28.502,17.371 c -0.002,0 -11.213,-0.004 -12.011,-0.004 0,0 -0.005,0 -0.006,0 -1.021,0 -1.853,0.846 -1.85,1.867 l 0.04,11.565 c 0.004,1.018 0.83,1.863 1.845,1.863 0.002,0 0.005,0 0.007,0 0.574,0 1.086,-0.287 1.423,-0.701 l 0.729,11.256 c 0.064,1.006 0.9,1.762 1.909,1.762 h 3.804 c 1.008,0 1.842,-0.767 1.908,-1.772 l 0.727,-11.276 c 0.338,0.438 0.849,0.731 1.425,0.731 0.002,0 0.003,0 0.007,0 1.016,0 1.841,-0.86 1.848,-1.871 l 0.037,-11.544 c 0.003,-1.012 -0.822,-1.876 -1.842,-1.876 z"
   inkscape:connector-curvature="0"
   style="fill:#ffffff;fill-opacity:1" />

		<circle
   id="circle6870"
   r="5.1149998"
   cy="11.022"
   cx="22.490999"
   sodipodi:cx="22.490999"
   sodipodi:cy="11.022"
   sodipodi:rx="5.1149998"
   sodipodi:ry="5.1149998"
   d="m 27.605999,11.022 c 0,2.824937 -2.290063,5.115 -5.115,5.115 -2.824936,0 -5.115,-2.290063 -5.115,-5.115 0,-2.8249361 2.290064,-5.1149995 5.115,-5.1149995 2.824937,0 5.115,2.2900634 5.115,5.1149995 z"
   style="fill:#ffffff;fill-opacity:1" />

		<path
   id="path6872"
   d="m 11.14,9.006 c -0.001,0 -8.809,-0.003 -9.435,-0.003 0,0 -0.004,0 -0.005,0 -0.801,0 -1.455,0.665 -1.453,1.467 l 0.031,9.085 c 0.003,0.8 0.652,1.464 1.45,1.464 0.001,0 0.004,0 0.005,0 0.451,0 0.854,-0.225 1.118,-0.55 l 0.573,8.841 c 0.051,0.789 0.707,1.383 1.5,1.383 h 2.989 c 0.791,0 1.446,-0.602 1.499,-1.391 l 0.57,-8.859 c 0.266,0.343 0.667,0.575 1.12,0.575 10e-4,0 0.002,0 0.005,0 0.798,0 1.446,-0.677 1.451,-1.47 l 0.03,-9.07 C 12.589,9.685 11.941,9.006 11.14,9.006 z"
   inkscape:connector-curvature="0"
   style="fill:#ffffff;fill-opacity:1" />

		<circle
   id="circle6874"
   r="4.0180001"
   cy="4.0180001"
   cx="6.4180002"
   sodipodi:cx="6.4180002"
   sodipodi:cy="4.0180001"
   sodipodi:rx="4.0180001"
   sodipodi:ry="4.0180001"
   d="m 10.436,4.0180001 c 0,2.2190802 -1.7989196,4.0180002 -4.0179998,4.0180002 -2.2190802,0 -4.0180001,-1.79892 -4.0180001,-4.0180002 C 2.4000001,1.7989199 4.19892,0 6.4180002,0 8.6370804,0 10.436,1.7989199 10.436,4.0180001 z"
   style="fill:#ffffff;fill-opacity:1" />

	</g>

	<g
   id="g6876"
   style="fill:#ffffff;fill-opacity:1">
		<path
   id="path6878"
   d="m 33.839,9.006 c 0.001,0 8.809,-0.003 9.436,-0.003 h 0.004 c 0.802,0 1.455,0.665 1.453,1.467 l -0.03,9.085 c -0.003,0.8 -0.652,1.464 -1.45,1.464 -0.001,0 -0.004,0 -0.005,0 -0.451,0 -0.854,-0.225 -1.118,-0.55 l -0.572,8.841 c -0.052,0.789 -0.707,1.383 -1.5,1.383 h -2.99 c -0.791,0 -1.445,-0.602 -1.498,-1.391 l -0.57,-8.859 c -0.266,0.343 -0.667,0.575 -1.12,0.575 -10e-4,0 -0.002,0 -0.005,0 -0.799,0 -1.447,-0.677 -1.451,-1.47 l -0.029,-9.07 C 32.39,9.685 33.038,9.006 33.839,9.006 z"
   inkscape:connector-curvature="0"
   style="fill:#ffffff;fill-opacity:1" />

		<circle
   id="circle6880"
   r="4.0180001"
   cy="4.0180001"
   cx="38.562"
   sodipodi:cx="38.562"
   sodipodi:cy="4.0180001"
   sodipodi:rx="4.0180001"
   sodipodi:ry="4.0180001"
   d="m 42.58,4.0180001 c 0,2.2190802 -1.79892,4.0180002 -4.018,4.0180002 -2.21908,0 -4.018,-1.79892 -4.018,-4.0180002 C 34.544,1.7989199 36.34292,0 38.562,0 40.78108,0 42.58,1.7989199 42.58,4.0180001 z"
   style="fill:#ffffff;fill-opacity:1" />

	</g>

</g>
      <g
         id="g6882"
         style="fill:#ffffff;fill-opacity:1">
</g>
      <g
         id="g6884"
         style="fill:#ffffff;fill-opacity:1">
</g>
      <g
         id="g6886"
         style="fill:#ffffff;fill-opacity:1">
</g>
      <g
         id="g6888"
         style="fill:#ffffff;fill-opacity:1">
</g>
      <g
         id="g6890"
         style="fill:#ffffff;fill-opacity:1">
</g>
      <g
         id="g6892"
         style="fill:#ffffff;fill-opacity:1">
</g>
      <g
         id="g6894"
         style="fill:#ffffff;fill-opacity:1">
</g>
      <g
         id="g6896"
         style="fill:#ffffff;fill-opacity:1">
</g>
      <g
         id="g6898"
         style="fill:#ffffff;fill-opacity:1">
</g>
      <g
         id="g6900"
         style="fill:#ffffff;fill-opacity:1">
</g>
      <g
         id="g6902"
         style="fill:#ffffff;fill-opacity:1">
</g>
      <g
         id="g6904"
         style="fill:#ffffff;fill-opacity:1">
</g>
      <g
         id="g6906"
         style="fill:#ffffff;fill-opacity:1">
</g>
      <g
         id="g6908"
         style="fill:#ffffff;fill-opacity:1">
</g>
      <g
         id="g6910"
         style="fill:#ffffff;fill-opacity:1">
</g>
    </g>
    <g
       id="g7045"
       transform="matrix(5.6610708,0,0,5.6610708,500.32799,484.69087)"
       style="fill:#ffffff;fill-opacity:1"
       inkscape:export-filename="/home/caiosba/Presidência/prototype/v1/images/icons/dance.png"
       inkscape:export-xdpi="28.382444"
       inkscape:export-ydpi="28.382444">
      <g
         id="g7005"
         style="fill:#ffffff;fill-opacity:1">
	<path
   id="path7007"
   d="M 27.843,5.159 C 27.374,5.355 25.65,6.855 25.306,7.151 24.963,7.445 24.915,7.814 24.915,7.814 l -4.37,3.199 c 0,0 -0.227,-2.135 -0.352,-3.317 C 20.068,6.514 18.944,6.292 18.944,6.292 V 5.901 c 0,0 0.624,0 0.547,-0.312 -0.078,-0.312 -0.272,-1.21 -0.272,-1.21 l 0.217,-0.155 0.29,-1.522 c 0,0 0.392,-0.312 0.311,-0.646 -0.078,-0.332 -1.051,-2.203 -3.431,-2.047 -2.378,0.155 -2.645,1.814 -2.811,2.302 -0.168,0.487 0.585,2.028 0.507,2.459 -0.078,0.429 -0.351,0.507 -0.351,0.507 0,0 -1.514,0.628 -3.201,1.327 -1.686,0.698 -5.54,8.428 -4.799,9.21 0.741,0.779 2.224,0.896 2.224,0.896 0,0 -3.403,1.702 -3.824,1.912 -0.421,0.21 -1.014,1.054 -0.819,2.106 0.195,1.055 1.743,3.528 2.225,4.176 0.481,0.647 0.937,2.692 0.937,2.692 l 1.249,-0.312 0.352,0.312 c 0,0 -0.547,1.209 -1.086,1.61 -0.539,0.402 -1.558,0.887 -1.841,1.048 -0.283,0.161 -0.079,0.697 0.635,0.971 0.714,0.274 2.292,0.04 2.54,-0.389 0.249,-0.428 0.889,-0.647 0.889,-0.647 l 0.32,0.024 c 0,0 1.122,-0.236 1.363,-0.287 0.24,-0.052 -0.167,-2.252 -0.167,-2.252 l 2.039,0.668 c -0.108,0.095 -0.181,0.229 -0.181,0.385 0,0.285 0.23,0.517 0.516,0.517 0.286,0 0.516,-0.23 0.516,-0.517 0,-0.179 -0.096,-0.327 -0.233,-0.42 l 3.958,-2.1 -0.604,1.74 c 0,0 -1.053,1.717 -0.507,2.264 0.546,0.546 1.498,0.477 1.498,0.477 0,0 -0.093,0.732 0.292,0.891 0.386,0.157 1.706,0.778 1.962,0.896 0.256,0.118 1.232,-0.624 1.232,-0.624 V 31.85 c 0,0 0.518,-0.468 0.05,-0.584 -0.469,-0.118 -1.951,-1.64 -2.341,-2.653 -0.393,-1.016 0.312,-1.562 0.312,-1.562 0,0 0.78,0.117 0.897,-0.077 0.117,-0.195 1.912,-6.83 1.752,-8.126 -0.161,-1.297 -2.533,-1.787 -2.533,-1.787 0,0 0.703,-0.936 0.432,-1.873 0.507,-0.194 2.185,-0.702 2.77,-1.247 0.586,-0.547 0.508,-3.122 0.508,-3.122 l 2.38,-1.913 c 0,0 0.373,-0.165 0.702,-0.312 0.331,-0.146 2.136,-1.675 2.537,-1.99 0.401,-0.315 -0.591,-1.638 -1.059,-1.445 z m -16.389,8.879 c 0.682,-0.137 1.085,0.067 1.636,-0.157 0.958,-0.389 0.813,-1.659 2.129,-2.243 1.894,-0.839 3.199,0.956 3.199,0.956 l -1.56,1.113 c 0,0 -0.616,-0.255 -1.327,-0.06 -0.575,0.158 -1.093,0.762 -1.093,0.762 0,0 -0.675,0.492 -1.249,0.585 -1.326,0.215 -3.102,-0.488 -3.102,-0.488 0,0 0.683,-0.331 1.367,-0.468 z m 8.182,2.635 c -0.555,0.813 -1.042,1.053 -2.018,1.326 -0.719,0.2 -0.84,0.564 -1.288,1.648 -0.449,1.082 -1.464,2.623 -2.712,2.8 -1.249,0.176 -2.299,-0.202 -2.869,-0.838 C 10.18,20.97 9.268,20.028 8.642,18.916 8.018,17.804 8.272,16.849 8.272,16.849 l 2.536,0.194 2.518,3.122 0.585,-0.518 -2.01,-2.702 h 1.326 l 1.835,0.701 c 0,0 0.409,0.176 0.721,0.233 0.313,0.06 0.614,-0.019 0.775,-0.136 0.162,-0.117 0.104,-0.468 0.104,-0.468 0,0 0.351,-0.194 0.526,-0.294 0.176,-0.098 0.116,-0.351 0.116,-0.351 0,0 0.626,-0.488 0.548,-1.64 0.465,-0.349 1.481,-1.113 1.481,-1.113 0,0 0.978,1.8 0.303,2.796 z m 2.021,-3.865 C 21.425,12.731 21.248,12.34 21.248,12.34 l 0.177,-0.215 0.43,0.409 c -0.002,10e-4 0.036,0.353 -0.198,0.274 z"
   inkscape:connector-curvature="0"
   style="fill:#ffffff;fill-opacity:1" />

</g>
      <g
         id="g7009"
         style="fill:#ffffff;fill-opacity:1">
</g>
      <g
         id="g7011"
         style="fill:#ffffff;fill-opacity:1">
</g>
      <g
         id="g7013"
         style="fill:#ffffff;fill-opacity:1">
</g>
      <g
         id="g7015"
         style="fill:#ffffff;fill-opacity:1">
</g>
      <g
         id="g7017"
         style="fill:#ffffff;fill-opacity:1">
</g>
      <g
         id="g7019"
         style="fill:#ffffff;fill-opacity:1">
</g>
      <g
         id="g7021"
         style="fill:#ffffff;fill-opacity:1">
</g>
      <g
         id="g7023"
         style="fill:#ffffff;fill-opacity:1">
</g>
      <g
         id="g7025"
         style="fill:#ffffff;fill-opacity:1">
</g>
      <g
         id="g7027"
         style="fill:#ffffff;fill-opacity:1">
</g>
      <g
         id="g7029"
         style="fill:#ffffff;fill-opacity:1">
</g>
      <g
         id="g7031"
         style="fill:#ffffff;fill-opacity:1">
</g>
      <g
         id="g7033"
         style="fill:#ffffff;fill-opacity:1">
</g>
      <g
         id="g7035"
         style="fill:#ffffff;fill-opacity:1">
</g>
      <g
         id="g7037"
         style="fill:#ffffff;fill-opacity:1">
</g>
    </g>
    <g
       id="g7206"
       transform="translate(-47.714286,151.79075)"
       style="fill:#ffffff;fill-opacity:1"
       inkscape:export-filename="/home/caiosba/Presidência/prototype/v1/images/icons/esp.png"
       inkscape:export-xdpi="217.5"
       inkscape:export-ydpi="217.5">
      <g
         id="g7166"
         style="fill:#ffffff;fill-opacity:1">
	<path
   id="path7168"
   d="M 12,0 C 5.4,0 0,5.4 0,12 0,18.6 5.4,24 12,24 18.6,24 24,18.6 24,12 24,5.4 18.6,0 12,0 z m 8.113,18.34 -0.213,-1.44 -3.7,0.8 -2,3.3 1.366,0.654 C 14.454,22.064 13.257,22.3 12,22.3 10.744,22.3 9.546,22.067 8.434,21.654 L 9.8,21 7.8,17.7 4.1,16.9 3.887,18.34 C 2.521,16.593 1.7,14.396 1.7,12 1.7,11.887 1.713,11.777 1.717,11.666 L 2.7,12.7 5.3,9.8 4.9,6 3.435,6.271 C 4.78,4.26 6.818,2.761 9.208,2.092 L 8.5,3.4 12,4.9 15.5,3.4 14.791,2.092 c 2.391,0.669 4.43,2.168 5.773,4.18 L 19.1,6 l -0.4,3.8 2.6,2.9 0.983,-1.035 c 0.003,0.112 0.017,0.222 0.017,0.335 0,2.396 -0.821,4.593 -2.187,6.34 z M 12,8 16.2,11.1 14.6,16 H 9.4 L 7.8,11.1 12,8 z"
   inkscape:connector-curvature="0"
   style="fill:#ffffff;fill-opacity:1" />

</g>
      <g
         id="g7170"
         style="fill:#ffffff;fill-opacity:1">
</g>
      <g
         id="g7172"
         style="fill:#ffffff;fill-opacity:1">
</g>
      <g
         id="g7174"
         style="fill:#ffffff;fill-opacity:1">
</g>
      <g
         id="g7176"
         style="fill:#ffffff;fill-opacity:1">
</g>
      <g
         id="g7178"
         style="fill:#ffffff;fill-opacity:1">
</g>
      <g
         id="g7180"
         style="fill:#ffffff;fill-opacity:1">
</g>
      <g
         id="g7182"
         style="fill:#ffffff;fill-opacity:1">
</g>
      <g
         id="g7184"
         style="fill:#ffffff;fill-opacity:1">
</g>
      <g
         id="g7186"
         style="fill:#ffffff;fill-opacity:1">
</g>
      <g
         id="g7188"
         style="fill:#ffffff;fill-opacity:1">
</g>
      <g
         id="g7190"
         style="fill:#ffffff;fill-opacity:1">
</g>
      <g
         id="g7192"
         style="fill:#ffffff;fill-opacity:1">
</g>
      <g
         id="g7194"
         style="fill:#ffffff;fill-opacity:1">
</g>
      <g
         id="g7196"
         style="fill:#ffffff;fill-opacity:1">
</g>
      <g
         id="g7198"
         style="fill:#ffffff;fill-opacity:1">
</g>
    </g>
    <g
       id="g7326"
       transform="translate(-502.41329,218.5204)"
       style="fill:#ffffff;fill-opacity:1"
       inkscape:export-filename="/home/caiosba/Presidência/prototype/v1/images/icons/cin.png"
       inkscape:export-xdpi="11.026659"
       inkscape:export-ydpi="11.026659">
      <g
         id="g7286"
         style="fill:#ffffff;fill-opacity:1">
	<path
   id="path7288"
   d="m 196.368,28.67 c -29.356,7.636 -55.145,1.157 -69.179,-4.573 V 15.45 H 79.871 v 457.948 h 47.318 V 252.215 c 52.181,6.249 96.527,-4.729 144.921,-23.681 57.174,-22.391 115.726,-2.906 121.363,1.326 L 393.527,8.128 c -70.793,-23.14 -154.085,9.34 -197.159,20.542 z"
   inkscape:connector-curvature="0"
   style="fill:#ffffff;fill-opacity:1" />

</g>
      <g
         id="g7290"
         style="fill:#ffffff;fill-opacity:1">
</g>
      <g
         id="g7292"
         style="fill:#ffffff;fill-opacity:1">
</g>
      <g
         id="g7294"
         style="fill:#ffffff;fill-opacity:1">
</g>
      <g
         id="g7296"
         style="fill:#ffffff;fill-opacity:1">
</g>
      <g
         id="g7298"
         style="fill:#ffffff;fill-opacity:1">
</g>
      <g
         id="g7300"
         style="fill:#ffffff;fill-opacity:1">
</g>
      <g
         id="g7302"
         style="fill:#ffffff;fill-opacity:1">
</g>
      <g
         id="g7304"
         style="fill:#ffffff;fill-opacity:1">
</g>
      <g
         id="g7306"
         style="fill:#ffffff;fill-opacity:1">
</g>
      <g
         id="g7308"
         style="fill:#ffffff;fill-opacity:1">
</g>
      <g
         id="g7310"
         style="fill:#ffffff;fill-opacity:1">
</g>
      <g
         id="g7312"
         style="fill:#ffffff;fill-opacity:1">
</g>
      <g
         id="g7314"
         style="fill:#ffffff;fill-opacity:1">
</g>
      <g
         id="g7316"
         style="fill:#ffffff;fill-opacity:1">
</g>
      <g
         id="g7318"
         style="fill:#ffffff;fill-opacity:1">
</g>
    </g>
    <g
       id="g7454"
       transform="translate(-61.65211,120.70968)"
       style="fill:#ffffff;fill-opacity:1"
       inkscape:export-filename="/home/caiosba/Presidência/prototype/v1/images/icons/ges.png"
       inkscape:export-xdpi="239.46107"
       inkscape:export-ydpi="239.46107">
      <g
         id="g7410"
         style="fill:#ffffff;fill-opacity:1">
	<g
   id="g7412"
   style="fill:#ffffff;fill-opacity:1">
		<path
   id="path7414"
   d="M 22.572,11.732 H 6.412 c -0.619,0 -1.348,0.453 -1.621,1.008 l -4.345,8.804 c -0.273,0.555 0.009,1.008 0.626,1.008 h 16.161 c 0.619,0 1.348,-0.453 1.621,-1.008 L 23.2,12.74 c 0.273,-0.555 -0.009,-1.008 -0.628,-1.008 z"
   inkscape:connector-curvature="0"
   style="fill:#ffffff;fill-opacity:1" />

		<path
   id="path7416"
   d="m 6.412,10.606 h 11.997 v -0.042 h 1.559 V 0.753 H 5.564 V 2.51 H 2.902 V 6.549 H 1.42 C 0.64,6.549 0,7.19 0,7.968 V 19.906 L 3.784,12.242 C 4.242,11.31 5.374,10.606 6.412,10.606 z M 4.155,3.761 c 0.203,0 0.711,0 1.409,0 v 5.55 c -0.698,0 -1.206,0 -1.409,0 0,-0.927 0,-4.62 0,-5.55 z M 18.717,2.005 c 0,0.992 0,6.315 0,7.306 -0.312,0 -1.357,0 -2.699,0 -0.769,0 -5.914,0 -9.2,0 0,-0.991 0,-6.314 0,-7.306 1.078,0 10.819,0 11.899,0 z"
   inkscape:connector-curvature="0"
   style="fill:#ffffff;fill-opacity:1" />

	</g>

</g>
      <g
         id="g7418"
         style="fill:#ffffff;fill-opacity:1">
</g>
      <g
         id="g7420"
         style="fill:#ffffff;fill-opacity:1">
</g>
      <g
         id="g7422"
         style="fill:#ffffff;fill-opacity:1">
</g>
      <g
         id="g7424"
         style="fill:#ffffff;fill-opacity:1">
</g>
      <g
         id="g7426"
         style="fill:#ffffff;fill-opacity:1">
</g>
      <g
         id="g7428"
         style="fill:#ffffff;fill-opacity:1">
</g>
      <g
         id="g7430"
         style="fill:#ffffff;fill-opacity:1">
</g>
      <g
         id="g7432"
         style="fill:#ffffff;fill-opacity:1">
</g>
      <g
         id="g7434"
         style="fill:#ffffff;fill-opacity:1">
</g>
      <g
         id="g7436"
         style="fill:#ffffff;fill-opacity:1">
</g>
      <g
         id="g7438"
         style="fill:#ffffff;fill-opacity:1">
</g>
      <g
         id="g7440"
         style="fill:#ffffff;fill-opacity:1">
</g>
      <g
         id="g7442"
         style="fill:#ffffff;fill-opacity:1">
</g>
      <g
         id="g7444"
         style="fill:#ffffff;fill-opacity:1">
</g>
      <g
         id="g7446"
         style="fill:#ffffff;fill-opacity:1">
</g>
    </g>
    <g
       id="g7604"
       transform="translate(-586.22743,434.70618)"
       style="fill:#ffffff;fill-opacity:1"
       inkscape:export-filename="/home/caiosba/Presidência/prototype/v1/images/icons/inf.png"
       inkscape:export-xdpi="18.684898"
       inkscape:export-ydpi="18.684898">
      <g
         id="g7550"
         style="fill:#ffffff;fill-opacity:1">
	<g
   id="g7552"
   style="fill:#ffffff;fill-opacity:1">
		<polygon
   id="polygon7554"
   points="118.071,242.125 97.817,242.125 80.041,263.604 40.868,387.341 82.291,387.341 "
   style="fill:#ffffff;fill-opacity:1" />

		<polygon
   id="polygon7556"
   points="151.127,107.971 129.31,107.971 100.801,198.023 128.937,198.023 "
   style="fill:#ffffff;fill-opacity:1" />

		<polygon
   id="polygon7558"
   points="415.271,263.604 397.494,242.125 377.242,242.125 413.021,387.341 454.443,387.341 "
   style="fill:#ffffff;fill-opacity:1" />

		<polygon
   id="polygon7560"
   points="394.51,198.023 366.002,107.971 344.189,107.971 366.377,198.023 "
   style="fill:#ffffff;fill-opacity:1" />

		<path
   id="path7562"
   d="m 232.857,189.525 h 29.6 l 0.623,8.498 h 68.881 l -22.189,-90.052 h -124.23 l -22.188,90.052 h 68.881 l 0.622,-8.498 z m 5.74,-78.351 h 18.117 l 2.87,39.175 h -23.858 l 2.871,-39.175 z"
   inkscape:connector-curvature="0"
   style="fill:#ffffff;fill-opacity:1" />

		<path
   id="path7564"
   d="m 152.486,242.125 -35.779,145.216 h 101.859 l 2.805,-41.115 h 52.569 l 2.807,41.115 H 378.606 L 342.827,242.125 H 152.486 z m 71.759,64.926 2.869,-39.174 h 41.083 l 2.875,39.174 h -46.827 z"
   inkscape:connector-curvature="0"
   style="fill:#ffffff;fill-opacity:1" />

		<polygon
   id="polygon7566"
   points="30.228,288.288 47.928,288.288 93.583,233.125 401.729,233.125 447.383,288.288 465.082,288.288 448.43,233.125 495.312,233.125 495.312,207.024 0,207.024 0,233.125 46.883,233.125 "
   style="fill:#ffffff;fill-opacity:1" />

	</g>

</g>
      <g
         id="g7568"
         style="fill:#ffffff;fill-opacity:1">
</g>
      <g
         id="g7570"
         style="fill:#ffffff;fill-opacity:1">
</g>
      <g
         id="g7572"
         style="fill:#ffffff;fill-opacity:1">
</g>
      <g
         id="g7574"
         style="fill:#ffffff;fill-opacity:1">
</g>
      <g
         id="g7576"
         style="fill:#ffffff;fill-opacity:1">
</g>
      <g
         id="g7578"
         style="fill:#ffffff;fill-opacity:1">
</g>
      <g
         id="g7580"
         style="fill:#ffffff;fill-opacity:1">
</g>
      <g
         id="g7582"
         style="fill:#ffffff;fill-opacity:1">
</g>
      <g
         id="g7584"
         style="fill:#ffffff;fill-opacity:1">
</g>
      <g
         id="g7586"
         style="fill:#ffffff;fill-opacity:1">
</g>
      <g
         id="g7588"
         style="fill:#ffffff;fill-opacity:1">
</g>
      <g
         id="g7590"
         style="fill:#ffffff;fill-opacity:1">
</g>
      <g
         id="g7592"
         style="fill:#ffffff;fill-opacity:1">
</g>
      <g
         id="g7594"
         style="fill:#ffffff;fill-opacity:1">
</g>
      <g
         id="g7596"
         style="fill:#ffffff;fill-opacity:1">
</g>
    </g>
  </g>
</svg>
